<svg width="328" height="130" fill="none" xmlns="http://www.w3.org/2000/svg"><rect x="111.5" y=".5" width="105" height="105" rx="11.5" fill="#fff"/><rect x="111.5" y=".5" width="105" height="105" rx="11.5" stroke="#CCEAF7"/><path d="m190.208 70.117 9.113.037-.031-.034v6.82h-2.219v6.755h2.262v4.625h2.082l-.031-.03v2.128l.031-.034h-4.4v4.604h-13.804v-2.27h2.397v-4.445h2.213v-2.337h-2.322v-4.554h-2.297v2.319h-2.104v2.294h-2.21v2.338h2.194c.038.713.072 1.35.115 2.104h2.048v2.316h-2.085V95h-2.3v-2.285h-2.4l.032.035v-2.363h-2.363l.034.031-.037-4.454h2.272v-2.232h-2.238v2.266h-2.085v-2.31h-2.266v-2.343h8.933v-2.067h-2.247v-4.729l-.035.035h2.319v-2.31h2.266v-2.107h-2.179v-2.3h2.191v-2.323h-8.951v2.248h-4.734l.031.034v-2.362l-.031.034h2.319V63.19h4.395v-2.154h2.399v2.039h4.56v-2.008h-4.591v-2.266h6.742v6.696h4.709l-.031-.035v2.363h2.362l-.034-.031.037 2.356h-2.272v4.327h2.241v-4.361zm-6.987 4.426h2.265v-2.228h-2.234v2.26h-2.045v2.343h2.004v2.21h2.294v-2.172c-.812 0-1.569 0-2.325-.003.016-.803.028-1.607.041-2.41zm11.369 2.425h-6.611v6.62h6.611v-6.62zm-6.642 15.679h4.314v-6.6h-2.079v4.384h-2.235v2.216zm4.448-20.354v2.188h4.528v-2.188h-4.528zM133.373 35.917h2.359l-.031-.034v2.266h2.129v-2.266l-.032.034h2.319v-2.076h6.726v-2.34h2.325V29.2h-2.247v-2.4l-.034.031h2.362v-2.129l-.031.031h2.403v2.017h2.3v-2.017h2.085l-.031-.03v2.032h2.362v-2.033l-.031.031h2.362l-.031-.03V26.8h2.362v2.39h-2.293v2.301h11.375l-.034-.031v2.306h-6.987v2.151l.034-.03h-2.129v2.362l.031-.031h-2.266v4.69h2.266l-.034-.03v4.395h2.135v2.39h-2.029v4.358h4.273v-2.073h-2.275v-2.316h2.319v-2.247h2.266v13.661h-2.257l.031.035v-4.598h-2.403v2.266h-6.716v-2.4h2.288v-2.3h-2.307V31.5h-4.401v-2.272h-2.234v2.238h2.265l-.037 4.454.031-.03h-2.362v2.362l.031-.034h-2.316v2.281h-2.296v-2.225h-2.145V35.96h-2.26v4.579h2.204v2.3h4.389v2.142h-2.226v2.294h-2.104v2.312h-2.297V44.97h-2.393l.031.034v-2.141h-2.322v-2.207h-2.063v2.173h2.091c-.025.725-.047 1.45-.068 2.175l.031-.034h-6.754v-2.095l-.034.031h2.362v-7.019l-.037.031z" fill="#000"/><path d="M146.915 26.8c-.71 0-1.42 0-2.129-.003l.031.034v-2.129h-2.362l.034.031V22.43h2.291v-2.384h2.038v-2.232h-2.007v2.266h-4.597v-2.31h2.166v-4.439h-2.179v-2.266h6.617v2.198h-1.93v2.39h4.352l-.032-.034v2.033h2.363v-2.033l-.031.034h2.315v-2.3h2.061V11.06h9.131v2.26l.035-.034h-2.07v4.463h-2.381v-4.367h-2.235v4.333h2.269l-.037 4.688.034-.031H158.3v2.362l.031-.03h-2.363l.032.03v-2.39h-2.176v-2.226h-2.288v2.307h-2.324v2.306l.031-.03h-2.363v2.128l.035-.028zM156 81.329v-6.783l-.035.031h2.4v2.251h2.3v-2.25h2.319l-.031-.032v2.363h2.129l-.035-.031.038 2.356h-4.367v2.005h4.336v-2.036h2.265v11.178h-2.194v2.297h2.194v2.319h-8.948v-2.213h2.251v-4.489h2.272v-4.557h-2.241v4.591h-4.632v2.008h-2.076v-4.292h4.283v-4.74h-2.259l.031.024zM122.047 11h15.671v15.732h-15.671V11zm13.588 13.668V13.4h-11.27v11.268h11.27zM190.264 26.722V11.05h15.733v15.672h-15.733zm13.386-2.054V13.4h-11.27v11.268h11.27zM122 94.963V79.312h15.736v15.65H122zm2.347-2.325h11.31v-11.25h-11.31v11.25zM146.915 88.286c-1.485 0-2.97-.003-4.454-.003l.034.034v-2.313h-2.284v-4.622h4.509V79.24h-4.516v-2.294h2.244V72.3h2.294v2.228h4.47v11.465l.034-.031c-.788.012-1.572.025-2.359.034v-2.273h-2.002v2.239h2.036l-.038 2.359a.334.334 0 0 1 .032-.034zM165.047 35.914h4.65v2.25h4.401v-4.286h2.341v1.93h2.34v-1.945h2.3v2.008h4.42v2.303h-4.333v2.319h-2.303v-2.188h-2.34v2.197h-11.479V42.9l.034-.034c-.709 0-1.419.003-2.125.003l.034.031v-4.69l-.031.03h2.129v-2.362l-.038.037z" fill="#000"/><path d="M167.378 61.037v4.46l.032-.034h-2.266v2.363h2.266l-.032-.034v2.31h-2.331v4.479l.035-.032h-2.129l.031.032v-2.4h-2.387v-2.067h-4.635v-2.32h2.331v-2.33h4.591v-2.295h-4.594c0-.71 0-1.42.003-2.129 3.038.013 6.079.022 9.117.035l-.032-.038zM187.948 29.079c-.8.015-1.6.031-2.396.043l.034.035v-4.364h-2.309v1.93h-2.111v-4.274h-2.303v4.345h-2.399l.031.034v-6.785l-.031.034h4.634v-2.279h4.426v2.198h2.393v9.117c-.003.006.031-.034.031-.034zM142.492 56.409v-4.364h2.272v1.933h2.107v-1.965h2.3V49.66h4.731l-.031-.034v2.394h2.132v6.72h-2.154v2.297h-2.306l.034.031v-6.913h-2.316v2.22h-6.8l.031.034zM199.296 49.66h4.416v-2.322l-.031.037h2.291V63.06h-4.547v-2.023l-.034.031h2.265v-2.362h-2.265l.034.03v-6.72h-2.095v-2.393l-.034.037z" fill="#000"/><path d="M153.902 72.215h-4.641v-2.033h-2.3v-2.294h-2.147v2.192h-2.26V61.07h2.26l-.031-.034v4.352h2.153v-2.266h2.307v-2.086l-.031.034c.787 0 1.574 0 2.362-.003l-.034-.03v4.478h-2.223v2.329h2.257v2.328h2.297v2.076l.031-.034zM165.05 22.408h2.319v-4.613h2.3v2.285h2.4l-.031-.035v2.391h2.097v4.395l.032-.031c-.71.012-1.417.025-2.126.034v-2.039h-2.232v2.008h2.266l-.037 2.36.031-.032h-4.712V24.74h-2.31c.01-.787.022-1.575.031-2.362l-.028.031zM137.795 74.546v2.266h-6.704V74.54h-6.8l.034.034v-2.356l-.034.03h2.266V70.12h-2.266l.034.03v-2.368h4.379l-.037-.031v4.498h4.74l-.031-.034v2.362h4.457l-.038-.03zM187.908 65.498v-2.32h-2.282v-2.07h4.52v-2.34h-4.489v-2.34h2.195V54.16h2.343v2.198h4.364v2.34h-2.197v4.396h-2.154v2.403l.034-.031h-2.362l.028.03zM199.296 67.829h2.085V65.54h4.594v9.005h-2.253l.031.034v-2.378h-2.394v-2.079h-2.066l.031.034c0-.787.003-1.575.003-2.36l-.031.032zM187.914 49.654v-2.307h-4.606v-2.343h9.026l-.035-.035v6.907h-2.035V49.62h-2.384l.034.034zM197.043 42.94v-2.316h4.31v-2.322h2.334v2.188h2.291v4.473h-2.263l.032.034v-2.032h-2.363v2.032l.031-.034h-2.057v-2.054h-2.356c.003 0 .041.03.041.03zM131.076 42.871h-9.026V40.6h2.194v-2.353h2.4l-.031-.035v2.267h2.128V38.21l-.031.032h2.328v4.66l.038-.032zM194.634 33.82h2.309v-4.608h2.303v6.662h-2.228v2.334h-4.719l.031.034V35.88l-.031.031h2.363v-2.13l-.028.038z" fill="#000"/><path d="M133.37 61.037v2.08h-2.301v4.638h-2.402s.037.03.034.03v-9.042h2.375l-.031-.034v2.362h2.362l-.037-.034zM187.836 11.047v2.213h-2.256v2.316h-4.358v-4.53h6.614zM122.025 49.576v-2.232h2.235v-2.269h4.391v4.501h-6.626zM203.719 76.909h2.265v4.367h-2.265v2.384l.034-.03h-2.394v-2.345h-1.979v-2.098h4.373v-2.313l-.034.035zM131.038 31.46v2.303h2.335v2.154l.031-.034h-4.691l.035.031v-2.079H126.7V29.2h1.979v2.294h2.394l-.035-.034zM153.905 44.997v-4.395h-2.331v-2.39l-.031.034h2.362v-2.363l-.031.031h2.035v9.052h-2.035l.031.031zM205.988 35.846h-2.22v-1.989h-2.287v-2.372h2.222v-2.254h2.285v6.615z" fill="#000"/><path d="M203.716 83.664h2.268v6.72h-2.265l.031.034V88.29h-2.363l.032.031v-2.387h2.328v-2.304l-.031.035zM137.795 47.297v2.357l.035-.031h-2.129v2.362l.031-.034h-2.319v-2.27h-2.266v-2.35h6.679l-.031-.034zM176.467 45.004h2.315v-2.055h2.266v6.615h-2.197v-2.195h-2.353v-2.4l-.031.035zM137.758 63.216h2.291v4.51h-6.589V65.48h4.329v-2.3l-.031.037zM192.302 38.211l.038 4.648.031-.038h-2.123v-2.213h-2.281v-4.694h2.269l-.031-.034v2.362h2.129l-.032-.03zM149.208 88.29v2.072h2.328v2.385l.035-.035h-6.676v-2.269h2.02V88.29l-.032.034h2.363l-.038-.034zM176.501 74.55c-1.488-.004-2.972-.004-4.46-.007l.034.035v-2.3H169.8V70.16h4.367l-.035-.035V72.2h2.335v2.385l.034-.034zM133.404 72.252v-2.035h6.66v4.33h-2.269l.035.03v-2.362h-4.457l.031.037zM172.069 20.08v-6.683h2.042v4.355h2.381l-.035-.035c0 .788.003 1.572.003 2.36l.032-.034h-4.457l.034.037z" fill="#000"/><path d="M203.719 90.384v2.319H206v2.266h-4.581v-4.588l-.032.034h2.363l-.031-.031zM165.047 13.319h2.316v-2.276h2.306v4.505h-4.591v-2.263c0 .003-.031.034-.031.034zM144.786 26.797v4.597h-4.582V29.2h2.285v-2.4l-.034.031h2.362l-.031-.034zM174.167 92.712h-2.086v2.285h-2.266v-4.579h4.355l-.035-.03v2.362l.032-.038zM131.073 31.494v-2.269h6.663v2.238h-6.698c0-.003.035.031.035.031zM155.969 81.298v2.272h-4.342v-4.29h2.213v2.052h2.163a13.292 13.292 0 0 0-.034-.034zM190.211 31.494h4.423v2.328l.031-.034h-2.363v2.13l.032-.032h-2.129l.031.034c.003-1.485.003-2.972.003-4.457l-.028.031zM137.795 49.657h2.266v4.333h-4.329v-2.036l-.031.035h2.129v-2.363l-.035.031zM131.038 52.048v1.964h-2.281v2.322h-2.035v-4.286h4.316zM122.065 63.194h4.498v2.229h-4.498v-2.229zM185.552 29.125v4.592h-2.241V29.16h2.272a.341.341 0 0 0-.031-.035zM149.243 15.653V11.06h2.297v4.595l.031-.035h-2.363l.035.034zM144.817 61.071v-2.269h4.395v2.27l.031-.035h-4.457l.031.034zM192.334 45.004c.012-.726.024-1.454.04-2.18 0 0-.031.038-.031.035 1.565.025 3.131.053 4.7.08 0 0-.038-.03-.035-.03v2.06h-4.706c-.003 0 .032.035.032.035zM165.047 42.9h4.591v2.007h-4.56v-2.039l-.031.031zM199.287 61.04v2.033h-4.563v-1.999h4.597l-.034-.034zM176.501 44.97h-4.357V42.96h4.326v2.04l.031-.032z" fill="#000"/><path d="M176.464 92.712v2.266h-2.297v-2.266l-.032.034h2.363l-.034-.034zM151.536 92.743h2.266v2.238h-2.234V92.71a.345.345 0 0 1-.032.034zM181.12 54.052v2.26h-2.235v-2.229h2.266l-.031-.03zM131.073 58.743v-2.266h2.297v2.263l.034-.031h-2.363l.032.034zM149.208 85.992h2.266v2.297h-2.266l.035.031v-2.362l-.035.034zM142.458 56.374v2.328h-2.328l.034.035v-2.329h2.328l-.034-.034zM187.88 49.62v2.266h-2.241v-2.232h2.272a.32.32 0 0 0-.031-.034zM124.356 60.99v-2.182h2.204v2.182h-2.204z" fill="#000"/><path d="M133.37 58.74c.787 0 1.574 0 2.362.003l-.031-.034v2.362l.031-.034c-.788 0-1.575 0-2.362.003l.034.032v-2.363l-.034.031zM160.621 22.405c.788 0 1.575 0 2.363.003l-.031-.034c.009.787.021 1.575.031 2.362-.788-.012-1.575-.021-2.363-.034l.032.031v-2.362l-.032.034zM140.13 58.706v2.331h-2.332l.032.034V58.71l-.032.034c.788-.003 1.575-.003 2.366-.006-.003 0-.034-.031-.034-.031zM199.327 49.626h-2.266v-2.238h2.235v2.272l.031-.034zM176.492 29.125h-2.36l.031.035v-2.363l-.031.031h2.363l-.031-.034c0 .787-.004 1.575-.004 2.36l.032-.029zM203.719 44.966l-.038 2.41s.031-.038.031-.035h-2.29v-2.375l-.031.034h2.362l-.034-.034zM153.902 47.294h-2.266V45h2.269l-.034-.03v2.362l.031-.038zM137.826 47.332c0-.791 0-1.578.004-2.37l-.032.035h2.363l-.031-.034v2.334h-2.335l.031.035zM203.719 74.546v2.366l.031-.034h-2.266V74.58h2.266l-.031-.035zM172.041 74.543v2.266h-2.238v-2.231h2.272a13.292 13.292 0 0 0-.034-.035zM165.047 74.578h2.266v2.297h-2.266l.035.031v-2.363l-.035.035zM153.821 74.509v2.325h-2.172V74.54h2.209c0 .003-.037-.031-.037-.031zM124.291 74.543v2.266h-2.241v-2.231h2.272c0-.003-.031-.035-.031-.035zM199.327 67.795h-2.266v-2.238h2.235v2.272l.031-.034zM176.46 29.16h2.266v2.238h-2.234v-2.273l-.032.035zM174.163 70.157v-2.266h2.238v2.232h-2.272c.003 0 .034.034.034.034zM190.242 31.46h-2.297v-2.378s-.031.037-.031.034h2.294v2.378a.364.364 0 0 0 .034-.034zM126.647 38.246v-2.332h2.098l-.035-.03v2.362l.031-.031h-2.128l.034.03zM174.17 54.08v-2.03h2.234v1.996h-2.265l.031.034zM122.031 35.83v-1.942h2.194v1.942h-2.194zM124.322 72.218h-2.266v-2.064h2.266l-.034-.031v2.13l.034-.035z" fill="#000"/><path d="M174.135 29.125v2.332h-2.097l.034.031v-2.363l-.031.032h2.129l-.035-.032zM156 74.546l-2.179-.037s.037.031.034.031c.013-.775.028-1.55.044-2.325l-.031.034h2.097v2.328l.035-.03zM190.205 65.495h2.035v2.297h-2.035l.034.031V65.46l-.034.035zM196.927 52.032v1.951h-2.206v-1.951h2.206zM199.321 61.075V58.74h2.101l-.035-.031v2.362l.035-.03c-.713 0-1.423.003-2.135.003a.31.31 0 0 1 .034.03zM176.495 17.752v-2.036h2.237v2.001h-2.272a.36.36 0 0 0 .035.035zM142.489 26.8h-2.266v-2.064h2.266l-.034-.03v2.128l.034-.034zM153.902 49.66v-2.366l-.031.035h2.032v2.297h-2.032l.031.034zM135.732 58.743v-2.266h2.063v2.266l.031-.034h-2.128l.034.034zM174.135 54.046v2.266h-2.007V54.08h2.039c.003 0-.032-.034-.032-.034zM142.458 88.286v2.035h-2.238V88.32h2.272c0-.003-.034-.034-.034-.034zM162.987 22.408v-2.266h2.063v2.266l.032-.034h-2.129l.034.034zM181.151 54.086v-2.032h2.007v2.001h-2.038c0-.003.031.031.031.031zM137.798 61.037l-.037 2.179s.031-.037.031-.034h-2.057v-2.145l-.031.034h2.129l-.035-.034zM135.732 35.917v-2.036h2.063v2.036l.031-.034h-2.128l.034.034zM192.296 79.315v1.914h-1.995v-1.914h1.995zM158.328 61.072h-2.363v-2.363h2.363v2.362zM162.953 24.702h2.129v2.13h-2.129v-2.13zM158.328 65.494H156v2.329h-2.036v-4.691h4.364v2.362zM126.681 22.302V15.7h6.651v6.602h-6.651zM201.378 15.731V22.3h-6.651v-6.568h6.651zM133.313 90.378h-6.588v-6.649h6.588v6.649z" fill="#000"/></svg>
